<svg width="225" height="220" viewBox="0 0 225 220" fill="none" xmlns="http://www.w3.org/2000/svg">
<path d="M95.8776 95.2417C90.6429 95.2417 86.5102 99.825 86.5102 105.417C86.5102 111.008 90.7347 115.592 95.8776 115.592C101.112 115.592 105.245 111.008 105.245 105.417C105.337 99.825 101.112 95.2417 95.8776 95.2417ZM129.398 95.2417C124.163 95.2417 120.031 99.825 120.031 105.417C120.031 111.008 124.255 115.592 129.398 115.592C134.633 115.592 138.765 111.008 138.765 105.417C138.765 99.825 134.633 95.2417 129.398 95.2417Z" fill="white"/>
<path d="M174.031 18.3333H50.9694C40.5918 18.3333 32.1429 26.7667 32.1429 37.2167V161.15C32.1429 171.6 40.5918 180.033 50.9694 180.033H155.112L150.245 163.075L162 173.983L173.112 184.25L192.857 201.667V37.2167C192.857 26.7667 184.408 18.3333 174.031 18.3333ZM138.582 138.05C138.582 138.05 135.276 134.108 132.52 130.625C144.551 127.233 149.143 119.717 149.143 119.717C145.378 122.192 141.796 123.933 138.582 125.125C133.99 127.05 129.582 128.333 125.265 129.067C116.449 130.717 108.367 130.258 101.48 128.975C96.2449 127.967 91.7449 126.5 87.9796 125.033C85.8674 124.208 83.5714 123.2 81.2755 121.917C81 121.733 80.7245 121.642 80.449 121.458C80.2653 121.367 80.1735 121.275 80.0816 121.183C78.4286 120.267 77.5102 119.625 77.5102 119.625C77.5102 119.625 81.9184 126.958 93.5816 130.442C90.8265 133.925 87.4286 138.05 87.4286 138.05C67.1327 137.408 59.4184 124.117 59.4184 124.117C59.4184 94.6 72.6429 70.675 72.6429 70.675C85.8674 60.775 98.449 61.05 98.449 61.05L99.3673 62.15C82.8367 66.9167 75.2143 74.1583 75.2143 74.1583C75.2143 74.1583 77.2347 73.0583 80.6327 71.5C90.4592 67.1917 98.2653 66 101.48 65.725C102.031 65.6333 102.49 65.5417 103.041 65.5417C108.643 64.8083 114.98 64.625 121.592 65.3583C130.316 66.3667 139.684 68.9333 149.235 74.1583C149.235 74.1583 141.98 67.2833 126.367 62.5167L127.653 61.05C127.653 61.05 140.235 60.775 153.459 70.675C153.459 70.675 166.684 94.6 166.684 124.117C166.684 124.117 158.878 137.408 138.582 138.05Z" fill="white"/>
</svg>
